<svg width="160" height="160" viewBox="0 0 160 160" fill="none" xmlns="http://www.w3.org/2000/svg">
<rect width="160" height="160" fill="#FFE17F"/>
<g clip-path="url(#clip0_556:348)">
<path d="M102.349 39.49C102.349 38.754 101.771 38 101.038 38H58.053C57.32 38 56.672 38.754 56.672 39.49V43.012H102.348L102.349 39.49Z" fill="#363636"/>
<path d="M103.202 119.809H93.605V109.426H86.647V111.933H67.774C67.237 110.679 66.017 109.785 64.593 109.785H52.559C50.642 109.784 49 111.387 49 113.311V116.329C49 118.253 50.642 119.809 52.559 119.809H64.594C66.105 119.809 67.386 118.913 67.863 117.483H86.648V119.809H77.13C76.597 119.809 76.12 120.246 76.12 120.781V123.953C76.12 124.488 76.598 125.001 77.13 125.001H103.202C103.735 125.001 104.132 124.488 104.132 123.953V120.78C104.132 120.245 103.735 119.809 103.202 119.809Z" fill="#363636"/>
<path d="M109.666 50.39C108.805 47.453 106.099 45.34 102.895 45.34H56.148C52.25 45.34 49 48.449 49 52.361V99.261C49 103.173 52.25 106.382 56.148 106.382H102.895C106.793 106.382 110.021 103.173 110.021 99.261V88.915C116.087 84.711 120.022 77.704 120.022 69.751C120.021 61.672 115.89 54.57 109.666 50.39ZM61.238 100.151C57.979 100.151 55.337 97.501 55.337 94.23C55.337 90.96 57.979 88.308 61.238 88.308C64.497 88.308 67.14 90.96 67.14 94.23C67.14 97.501 64.497 100.151 61.238 100.151ZM67.199 67.546C67.199 68.332 66.564 68.968 65.781 68.968H56.841C56.058 68.968 55.423 68.331 55.423 67.546V53.386C55.423 52.6 56.058 51.963 56.841 51.963H65.78C66.563 51.963 67.198 52.6 67.198 53.386L67.199 67.546ZM96.762 89.858C85.686 89.858 76.705 80.848 76.705 69.735C76.705 58.622 85.685 49.611 96.762 49.611C107.839 49.611 116.82 58.621 116.82 69.735C116.82 80.849 107.839 89.858 96.762 89.858Z" fill="#363636"/>
<path d="M96.762 81.964C103.493 81.964 108.95 76.4889 108.95 69.735C108.95 62.9811 103.493 57.506 96.762 57.506C90.0308 57.506 84.574 62.9811 84.574 69.735C84.574 76.4889 90.0308 81.964 96.762 81.964Z" fill="#363636"/>
<path d="M80.562 71.171C81.3545 71.171 81.997 70.5285 81.997 69.736C81.997 68.9435 81.3545 68.301 80.562 68.301C79.7695 68.301 79.127 68.9435 79.127 69.736C79.127 70.5285 79.7695 71.171 80.562 71.171Z" fill="#363636"/>
<path d="M112.963 71.171C113.756 71.171 114.398 70.5285 114.398 69.736C114.398 68.9435 113.756 68.301 112.963 68.301C112.17 68.301 111.528 68.9435 111.528 69.736C111.528 70.5285 112.17 71.171 112.963 71.171Z" fill="#363636"/>
<path d="M88.109 57.429C88.9015 57.429 89.544 56.7865 89.544 55.994C89.544 55.2015 88.9015 54.559 88.109 54.559C87.3165 54.559 86.674 55.2015 86.674 55.994C86.674 56.7865 87.3165 57.429 88.109 57.429Z" fill="#363636"/>
<path d="M105.415 84.912C106.205 84.912 106.845 84.2691 106.845 83.476C106.845 82.6829 106.205 82.04 105.415 82.04C104.625 82.04 103.985 82.6829 103.985 83.476C103.985 84.2691 104.625 84.912 105.415 84.912Z" fill="#363636"/>
<path d="M104.697 57C105.49 57 106.132 56.3575 106.132 55.565C106.132 54.7725 105.49 54.13 104.697 54.13C103.904 54.13 103.262 54.7725 103.262 55.565C103.262 56.3575 103.904 57 104.697 57Z" fill="#363636"/>
<path d="M88.828 85.341C89.6205 85.341 90.263 84.6985 90.263 83.906C90.263 83.1135 89.6205 82.471 88.828 82.471C88.0355 82.471 87.393 83.1135 87.393 83.906C87.393 84.6985 88.0355 85.341 88.828 85.341Z" fill="#363636"/>
</g>
<defs>
<clipPath id="clip0_556:348">
<rect width="71" height="87" fill="white" transform="translate(49 38)"/>
</clipPath>
</defs>
</svg>
