<svg width="160" height="160" viewBox="0 0 160 160" fill="none" xmlns="http://www.w3.org/2000/svg">
<rect width="160" height="160" fill="#FFE17F"/>
<g clip-path="url(#clip0_556:351)">
<path d="M26.0522 49.2579C20.5073 49.7452 15.8383 50.8507 14.5752 51.9303C13.8525 52.5465 13.8525 52.5465 14.3428 53.0865C14.9873 53.8062 18.0562 54.7315 21.5904 55.3228C25.5884 55.9908 34.1002 56.0162 35.3135 55.3741C36.5254 54.7061 36.9375 53.9605 36.9375 52.3927C36.9375 50.774 36.3184 49.9767 34.7197 49.5402C33.2739 49.1543 28.9414 49 26.0522 49.2579Z" fill="#363636"/>
<path d="M39.7744 49.4883C39.645 49.7715 39.5161 51.5962 39.5161 53.6001C39.5161 57.6611 39.6714 57.3784 37.3242 57.5332L36.2934 57.6103L36.0351 62.6986L34.8486 62.9818C32.2695 63.6498 30.8496 65.577 31.0571 68.2762C31.185 70.2034 32.0879 71.617 33.6357 72.3631C34.7446 72.8763 35.1054 72.9012 44.8818 72.9012C50.4267 72.9012 55.019 72.9798 55.0703 73.0819C55.1211 73.2103 53.9609 82.4891 52.4907 93.7206C51.0459 104.951 49.8075 114.718 49.7822 115.387C49.7309 117.004 50.6084 118.008 52.1299 118.008C53.3672 118.008 54.1416 117.366 54.4512 116.106C54.5806 115.593 55.9468 105.773 57.4693 94.285C58.9913 82.8221 60.3321 73.4163 60.4097 73.4163C60.5127 73.4163 61.4927 74.8294 62.6021 76.552C65.542 81.178 65.001 80.8689 70.2374 80.8689H74.5958V86.4987L69.463 86.5758C64.7428 86.6529 64.253 86.7028 63.5817 87.191C62.0089 88.3482 61.9567 88.606 61.9567 98.1676C61.9567 107.702 61.9831 107.96 63.4792 109.217L64.3303 109.913H95.6955L96.5461 109.217C98.0422 107.96 98.0666 107.702 98.0666 98.1676C98.0666 88.6061 98.0157 88.3483 96.4436 87.191C95.7727 86.7027 95.2825 86.6529 90.5618 86.5758L85.43 86.4987V80.8689H89.7894C95.0238 80.8689 94.4828 81.178 97.4232 76.552C98.5336 74.8293 99.513 73.4163 99.6166 73.4163C99.6928 73.4163 101.035 82.8221 102.556 94.285C104.079 105.773 105.446 115.593 105.575 116.106C105.884 117.366 106.657 118.008 107.896 118.008C109.417 118.008 110.295 117.004 110.243 115.387C110.217 114.718 108.979 104.951 107.534 93.7206C106.065 82.4892 104.903 73.2103 104.956 73.0819C105.006 72.9798 109.597 72.9012 115.145 72.9012C124.92 72.9012 125.281 72.8763 126.389 72.3631C127.937 71.617 128.839 70.2034 128.968 68.2762C129.175 65.577 127.757 63.6497 125.177 62.9818L123.99 62.6986L123.734 57.6103L122.702 57.5332C120.355 57.3784 120.508 57.6611 120.508 53.6001C120.508 51.5962 120.38 49.7715 120.251 49.4883C120.045 49.1284 119.708 49 118.884 49C118.265 49 117.646 49.1284 117.464 49.3086C117.258 49.5142 117.155 50.7739 117.155 53.2407C117.155 55.708 117.052 56.9678 116.845 57.1728C116.665 57.3525 115.944 57.4809 115.196 57.4809C113.57 57.4809 113.544 57.5331 113.544 60.5913V62.8784H46.4805V60.5913C46.4805 57.5332 46.4556 57.4809 44.8306 57.4809C44.0821 57.4809 43.3604 57.3525 43.1802 57.1728C42.9727 56.9677 42.8701 55.708 42.8701 53.2407C42.8701 50.7739 42.7671 49.5141 42.5605 49.3086C42.3798 49.1284 41.7602 49 41.1416 49C40.3169 49 39.9814 49.1285 39.7744 49.4883ZM82.6172 89.6084C85.5059 90.5068 88.0088 93.001 88.7831 95.7764C89.2216 97.3194 89.0928 99.9922 88.499 101.56C87.8027 103.435 85.8144 105.569 83.9336 106.495C82.6436 107.137 82.1797 107.214 80.0127 107.214C77.8462 107.214 77.3818 107.137 76.0923 106.495C74.208 105.569 72.2232 103.435 71.5264 101.56C70.9336 99.9922 70.8037 97.3194 71.2427 95.7764C71.9907 93.0528 74.4922 90.5069 77.3042 89.6084C79.3164 88.9659 80.6045 88.9659 82.6172 89.6084Z" fill="#363636"/>
<path d="M77.7939 93.4375C75.7573 94.3633 74.2871 97.0869 74.7251 99.168C75.499 102.845 79.5482 104.721 82.7206 102.87C84.706 101.712 85.7119 99.3232 85.1719 97.0869C84.6035 94.6963 82.4375 92.9492 80.0127 92.9492C79.3672 92.9493 78.3872 93.1807 77.7939 93.4375Z" fill="#363636"/>
<path d="M50.0918 49.1543C46.1714 49.8223 45.5786 50.2852 45.5786 52.5981C45.5786 54.4228 46.0425 55.0141 47.8467 55.5537C49.3965 56.0161 55.0191 56.0679 58.3467 55.6821C65.2075 54.8598 69.6685 53.1377 68.0454 51.9301C66.7803 51.0302 63.1431 50.0536 58.9912 49.54C56.5156 49.232 50.9951 49 50.0918 49.1543Z" fill="#363636"/>
<path d="M103.484 49.2579C97.1651 49.8482 91.6201 51.339 91.6201 52.4439C91.6201 54.1661 99.4609 55.9136 107.25 55.9395C113.054 55.9395 114.446 55.2974 114.446 52.5982C114.446 50.774 113.827 49.9766 112.073 49.5142C110.424 49.1026 106.398 49 103.484 49.2579Z" fill="#363636"/>
<path d="M126.776 49.2833C124.996 49.5143 123.758 50.0538 123.346 50.774C122.959 51.5445 123.036 53.6778 123.5 54.3458C124.428 55.6568 125.152 55.8111 130.568 55.8111C134.229 55.8111 136.37 55.6822 138.435 55.3228C141.969 54.7315 145.038 53.8062 145.683 53.0865C146.173 52.5465 146.173 52.5465 145.45 51.9303C144.109 50.7994 139.492 49.7452 133.534 49.2579C130.053 48.9747 129.046 48.9747 126.776 49.2833Z" fill="#363636"/>
</g>
<defs>
<clipPath id="clip0_556:351">
<rect width="132" height="69" fill="white" transform="translate(14 49)"/>
</clipPath>
</defs>
</svg>
