<svg width="160" height="160" viewBox="0 0 160 160" fill="none" xmlns="http://www.w3.org/2000/svg">
<rect width="160" height="160" fill="#FFE17F"/>
<g clip-path="url(#clip0_556:349)">
<path d="M124.967 54.074C125.719 55.515 126.176 57.154 126.176 58.892V79.994C126.176 84.61 123.084 88.521 118.93 89.894C117.605 93.881 115.152 97.748 110.879 100.326C102.203 105.557 79.755 105.163 79.681 105.163C79.603 105.163 57.168 105.558 48.492 100.326C44.276 97.781 41.784 93.979 40.45 90.047C36.032 88.838 32.694 84.796 32.694 79.994V58.893C32.694 57.205 33.121 55.611 33.833 54.2C30.17 55.109 26 56.918 26 60.434C26 66.677 26 86.121 26 90.417C26 100.668 37.839 114.85 79.657 114.85C121.477 114.85 133.314 100.668 133.314 90.417C133.314 86.121 133.314 66.677 133.314 60.434C133.313 56.75 128.738 54.94 124.967 54.074Z" fill="#363636"/>
<path d="M46.561 88.459H112.084C117.648 88.459 122.158 83.946 122.158 78.382V59.935C122.158 54.372 117.648 49.86 112.084 49.86H46.561C40.997 49.86 36.486 54.371 36.486 59.935V78.382C36.486 83.946 40.997 88.459 46.561 88.459ZM109.695 59.468C110.562 59.468 111.264 60.171 111.264 61.038C111.264 61.904 110.562 62.607 109.695 62.607C108.828 62.607 108.127 61.904 108.127 61.038C108.127 60.17 108.828 59.468 109.695 59.468ZM109.695 63.507C110.562 63.507 111.264 64.21 111.264 65.075C111.264 65.942 110.562 66.644 109.695 66.644C108.828 66.644 108.127 65.942 108.127 65.075C108.127 64.21 108.828 63.507 109.695 63.507ZM109.695 67.546C110.562 67.546 111.264 68.248 111.264 69.115C111.264 69.981 110.562 70.684 109.695 70.684C108.828 70.684 108.127 69.981 108.127 69.115C108.127 68.248 108.828 67.546 109.695 67.546ZM109.695 71.373C110.562 71.373 111.264 72.077 111.264 72.942C111.264 73.809 110.562 74.51 109.695 74.51C108.828 74.51 108.127 73.809 108.127 72.942C108.127 72.076 108.828 71.373 109.695 71.373ZM109.695 75.412C110.562 75.412 111.264 76.114 111.264 76.981C111.264 77.846 110.562 78.549 109.695 78.549C108.828 78.549 108.127 77.845 108.127 76.981C108.127 76.114 108.828 75.412 109.695 75.412ZM105.656 59.468C106.523 59.468 107.224 60.171 107.224 61.038C107.224 61.904 106.523 62.607 105.656 62.607C104.791 62.607 104.088 61.904 104.088 61.038C104.088 60.17 104.791 59.468 105.656 59.468ZM105.656 75.412C106.523 75.412 107.224 76.114 107.224 76.981C107.224 77.846 106.523 78.549 105.656 78.549C104.791 78.549 104.088 77.845 104.088 76.981C104.088 76.114 104.791 75.412 105.656 75.412ZM101.619 59.468C102.484 59.468 103.187 60.171 103.187 61.038C103.187 61.904 102.484 62.607 101.619 62.607C100.752 62.607 100.05 61.904 100.05 61.038C100.05 60.17 100.752 59.468 101.619 59.468ZM101.619 63.507C102.484 63.507 103.187 64.21 103.187 65.075C103.187 65.942 102.484 66.644 101.619 66.644C100.752 66.644 100.05 65.942 100.05 65.075C100.05 64.21 100.752 63.507 101.619 63.507ZM101.619 67.546C102.484 67.546 103.187 68.248 103.187 69.115C103.187 69.981 102.484 70.684 101.619 70.684C100.752 70.684 100.05 69.981 100.05 69.115C100.05 68.248 100.752 67.546 101.619 67.546ZM101.619 71.373C102.484 71.373 103.187 72.077 103.187 72.942C103.187 73.809 102.484 74.51 101.619 74.51C100.752 74.51 100.05 73.809 100.05 72.942C100.05 72.076 100.752 71.373 101.619 71.373ZM101.619 75.412C102.484 75.412 103.187 76.114 103.187 76.981C103.187 77.846 102.484 78.549 101.619 78.549C100.752 78.549 100.05 77.845 100.05 76.981C100.05 76.114 100.752 75.412 101.619 75.412ZM93.965 59.468C94.832 59.468 95.533 60.171 95.533 61.038C95.533 61.904 94.832 62.607 93.965 62.607C93.098 62.607 92.397 61.904 92.397 61.038C92.396 60.17 93.1 59.468 93.965 59.468ZM93.965 67.546C94.832 67.546 95.533 68.248 95.533 69.115C95.533 69.981 94.832 70.684 93.965 70.684C93.098 70.684 92.397 69.981 92.397 69.115C92.396 68.248 93.1 67.546 93.965 67.546ZM93.965 71.427C94.832 71.427 95.533 72.128 95.533 72.995C95.533 73.86 94.832 74.564 93.965 74.564C93.098 74.564 92.397 73.86 92.397 72.995C92.396 72.128 93.1 71.427 93.965 71.427ZM93.965 75.412C94.832 75.412 95.533 76.114 95.533 76.981C95.533 77.846 94.832 78.549 93.965 78.549C93.098 78.549 92.397 77.845 92.397 76.981C92.396 76.114 93.1 75.412 93.965 75.412ZM89.926 59.468C90.793 59.468 91.496 60.171 91.496 61.038C91.496 61.904 90.793 62.607 89.926 62.607C89.061 62.607 88.357 61.904 88.357 61.038C88.356 60.17 89.061 59.468 89.926 59.468ZM89.926 67.546C90.793 67.546 91.496 68.248 91.496 69.115C91.496 69.981 90.793 70.684 89.926 70.684C89.061 70.684 88.357 69.981 88.357 69.115C88.356 68.248 89.061 67.546 89.926 67.546ZM89.926 75.412C90.793 75.412 91.496 76.114 91.496 76.981C91.496 77.846 90.793 78.549 89.926 78.549C89.061 78.549 88.357 77.845 88.357 76.981C88.356 76.114 89.061 75.412 89.926 75.412ZM85.888 59.468C86.753 59.468 87.457 60.171 87.457 61.038C87.457 61.904 86.753 62.607 85.888 62.607C85.021 62.607 84.32 61.904 84.32 61.038C84.319 60.17 85.021 59.468 85.888 59.468ZM85.888 63.507C86.753 63.507 87.457 64.21 87.457 65.075C87.457 65.942 86.753 66.644 85.888 66.644C85.021 66.644 84.32 65.942 84.32 65.075C84.319 64.21 85.021 63.507 85.888 63.507ZM85.888 67.546C86.753 67.546 87.457 68.248 87.457 69.115C87.457 69.981 86.753 70.684 85.888 70.684C85.021 70.684 84.32 69.981 84.32 69.115C84.319 68.248 85.021 67.546 85.888 67.546ZM85.888 75.412C86.753 75.412 87.457 76.114 87.457 76.981C87.457 77.846 86.753 78.549 85.888 78.549C85.021 78.549 84.32 77.845 84.32 76.981C84.319 76.114 85.021 75.412 85.888 75.412ZM77.598 59.468C78.465 59.468 79.167 60.171 79.167 61.038C79.167 61.904 78.465 62.607 77.598 62.607C76.731 62.607 76.03 61.904 76.03 61.038C76.029 60.17 76.731 59.468 77.598 59.468ZM77.598 63.507C78.465 63.507 79.167 64.21 79.167 65.075C79.167 65.942 78.465 66.644 77.598 66.644C76.731 66.644 76.03 65.942 76.03 65.075C76.029 64.21 76.731 63.507 77.598 63.507ZM77.598 67.546C78.465 67.546 79.167 68.248 79.167 69.115C79.167 69.981 78.465 70.684 77.598 70.684C76.731 70.684 76.03 69.981 76.03 69.115C76.029 68.248 76.731 67.546 77.598 67.546ZM77.598 71.427C78.465 71.427 79.167 72.128 79.167 72.995C79.167 73.86 78.465 74.564 77.598 74.564C76.731 74.564 76.03 73.86 76.03 72.995C76.029 72.128 76.731 71.427 77.598 71.427ZM77.598 75.412C78.465 75.412 79.167 76.114 79.167 76.981C79.167 77.846 78.465 78.549 77.598 78.549C76.731 78.549 76.03 77.845 76.03 76.981C76.029 76.114 76.731 75.412 77.598 75.412ZM73.559 63.507C74.426 63.507 75.127 64.21 75.127 65.075C75.127 65.942 74.426 66.644 73.559 66.644C72.692 66.644 71.99 65.942 71.99 65.075C71.99 64.21 72.691 63.507 73.559 63.507ZM65.057 63.295C65.922 63.295 66.626 63.998 66.626 64.863C66.626 65.73 65.922 66.432 65.057 66.432C64.19 66.432 63.486 65.729 63.486 64.863C63.486 63.998 64.189 63.295 65.057 63.295ZM65.057 67.333C65.922 67.333 66.626 68.036 66.626 68.903C66.626 69.769 65.922 70.473 65.057 70.473C64.19 70.473 63.486 69.769 63.486 68.903C63.486 68.036 64.189 67.333 65.057 67.333ZM61.018 59.255C61.883 59.255 62.586 59.958 62.586 60.825C62.586 61.691 61.882 62.393 61.018 62.393C60.151 62.393 59.449 61.69 59.449 60.825C59.449 59.958 60.15 59.255 61.018 59.255ZM61.018 63.295C61.883 63.295 62.586 63.998 62.586 64.863C62.586 65.73 61.882 66.432 61.018 66.432C60.151 66.432 59.449 65.729 59.449 64.863C59.449 63.998 60.15 63.295 61.018 63.295ZM61.018 67.333C61.883 67.333 62.586 68.036 62.586 68.903C62.586 69.769 61.882 70.473 61.018 70.473C60.151 70.473 59.449 69.769 59.449 68.903C59.449 68.036 60.15 67.333 61.018 67.333ZM61.018 71.373C61.883 71.373 62.586 72.077 62.586 72.942C62.586 73.809 61.882 74.51 61.018 74.51C60.151 74.51 59.449 73.809 59.449 72.942C59.449 72.076 60.15 71.373 61.018 71.373ZM56.764 63.295C57.631 63.295 58.333 63.998 58.333 64.863C58.333 65.73 57.631 66.432 56.764 66.432C55.897 66.432 55.196 65.729 55.196 64.863C55.196 63.998 55.897 63.295 56.764 63.295ZM56.764 67.333C57.631 67.333 58.333 68.036 58.333 68.903C58.333 69.769 57.631 70.473 56.764 70.473C55.897 70.473 55.196 69.769 55.196 68.903C55.196 68.036 55.897 67.333 56.764 67.333ZM56.764 71.373C57.631 71.373 58.333 72.077 58.333 72.942C58.333 73.809 57.631 74.51 56.764 74.51C55.897 74.51 55.196 73.809 55.196 72.942C55.196 72.076 55.897 71.373 56.764 71.373ZM56.764 75.412C57.631 75.412 58.333 76.114 58.333 76.981C58.333 77.846 57.631 78.549 56.764 78.549C55.897 78.549 55.196 77.845 55.196 76.981C55.196 76.114 55.897 75.412 56.764 75.412ZM52.3 59.255C53.167 59.255 53.871 59.958 53.871 60.825C53.871 61.691 53.167 62.393 52.3 62.393C51.435 62.393 50.731 61.69 50.731 60.825C50.731 59.958 51.435 59.255 52.3 59.255ZM52.3 63.295C53.167 63.295 53.871 63.998 53.871 64.863C53.871 65.73 53.167 66.432 52.3 66.432C51.435 66.432 50.731 65.729 50.731 64.863C50.731 63.998 51.435 63.295 52.3 63.295ZM52.3 67.333C53.167 67.333 53.871 68.036 53.871 68.903C53.871 69.769 53.167 70.473 52.3 70.473C51.435 70.473 50.731 69.769 50.731 68.903C50.731 68.036 51.435 67.333 52.3 67.333ZM52.3 71.373C53.167 71.373 53.871 72.077 53.871 72.942C53.871 73.809 53.167 74.51 52.3 74.51C51.435 74.51 50.731 73.809 50.731 72.942C50.731 72.076 51.435 71.373 52.3 71.373ZM48.263 63.295C49.128 63.295 49.832 63.998 49.832 64.863C49.832 65.73 49.128 66.432 48.263 66.432C47.396 66.432 46.694 65.729 46.694 64.863C46.694 63.998 47.396 63.295 48.263 63.295ZM48.263 67.333C49.128 67.333 49.832 68.036 49.832 68.903C49.832 69.769 49.128 70.473 48.263 70.473C47.396 70.473 46.694 69.769 46.694 68.903C46.694 68.036 47.396 67.333 48.263 67.333Z" fill="#363636"/>
</g>
<defs>
<clipPath id="clip0_556:349">
<rect width="107" height="65" fill="white" transform="translate(26 50)"/>
</clipPath>
</defs>
</svg>
