<svg width="160" height="160" viewBox="0 0 160 160" fill="none" xmlns="http://www.w3.org/2000/svg">
<rect width="160" height="160" fill="#FFE17F"/>
<g clip-path="url(#clip0_556:350)">
<path d="M107.494 63.197H105.979V58.557C105.979 53.505 101.892 49.371 96.897 49.371H62.082C57.086 49.372 53 53.505 53 58.557V101.425C53 106.477 57.087 110.61 62.083 110.61H96.898C101.893 110.61 105.98 106.477 105.98 101.425V98.01H107.495C107.91 98.01 108.252 97.666 108.252 97.246V83.467C108.252 83.046 107.91 82.701 107.495 82.701H105.98V73.913H107.495C108.327 73.913 109.009 73.225 109.009 72.382V64.728C109.008 63.886 108.326 63.197 107.494 63.197ZM87.082 60.088C90.008 60.088 92.381 62.486 92.381 65.446C92.381 68.406 90.008 70.804 87.082 70.804C84.156 70.804 81.784 68.406 81.784 65.446C81.784 62.486 84.156 60.088 87.082 60.088ZM71.945 60.088C74.87 60.088 77.243 62.486 77.243 65.446C77.243 68.406 74.87 70.804 71.945 70.804C69.019 70.804 66.647 68.406 66.647 65.446C66.647 62.486 69.019 60.088 71.945 60.088ZM58.297 80.397C58.297 77.438 60.668 75.039 63.595 75.039C66.521 75.039 68.893 77.438 68.893 80.397C68.893 83.356 66.52 85.755 63.595 85.755C60.668 85.756 58.297 83.356 58.297 80.397ZM71.945 99.894C69.019 99.894 66.647 97.496 66.647 94.536C66.647 91.576 69.019 89.178 71.945 89.178C74.87 89.178 77.243 91.576 77.243 94.536C77.243 97.496 74.87 99.894 71.945 99.894ZM73.435 79.991C73.435 76.609 76.146 73.867 79.49 73.867C82.834 73.867 85.545 76.609 85.545 79.991C85.545 83.373 82.834 86.115 79.49 86.115C76.146 86.114 73.435 83.373 73.435 79.991ZM87.082 99.894C84.156 99.894 81.784 97.496 81.784 94.536C81.784 91.576 84.156 89.178 87.082 89.178C90.008 89.178 92.381 91.576 92.381 94.536C92.381 97.496 90.008 99.894 87.082 99.894ZM95.384 85.756C92.457 85.756 90.086 83.357 90.086 80.398C90.086 77.439 92.457 75.04 95.384 75.04C98.31 75.04 100.682 77.439 100.682 80.398C100.682 83.356 98.31 85.756 95.384 85.756Z" fill="#363636"/>
<path d="M62.646 46.31H96.333C97.176 46.31 97.765 45.629 97.639 44.796L96.023 34.028C96.023 34.028 96.023 34.027 96.021 34.026C95.771 32.362 94.189 31 92.506 31H66.474C64.788 31 63.206 32.362 62.957 34.028L61.342 44.795C61.217 45.628 61.803 46.31 62.646 46.31Z" fill="#363636"/>
<path d="M96.333 113.671H62.646C61.803 113.671 61.217 114.354 61.342 115.187L62.957 125.954C63.207 127.62 64.789 128.982 66.473 128.982H92.505C94.189 128.982 95.771 127.62 96.022 125.956V125.954L97.637 115.187C97.765 114.354 97.176 113.671 96.333 113.671Z" fill="#363636"/>
</g>
<defs>
<clipPath id="clip0_556:350">
<rect width="56" height="98" fill="white" transform="translate(53 31)"/>
</clipPath>
</defs>
</svg>
